<?xml version="1.0" standalone="no"?>
<!DOCTYPE svg PUBLIC "-//W3C//DTD SVG 20010904//EN"
 "http://www.w3.org/TR/2001/REC-SVG-20010904/DTD/svg10.dtd">
<svg version="1.0" xmlns="http://www.w3.org/2000/svg"
 width="654.000000pt" height="693.000000pt" viewBox="0 0 654.000000 693.000000"
 preserveAspectRatio="xMidYMid meet">
<metadata>
Created by potrace 1.10, written by Peter Selinger 2001-2011
</metadata>
<g transform="translate(0.000000,693.000000) scale(0.100000,-0.100000)"
fill="#700000" stroke="none">
<path d="M0 3465 l0 -3465 3270 0 3270 0 0 3465 0 3465 -3270 0 -3270 0 0
-3465z m6183 3326 c5 0 5 -5 2 -11 -4 -7 -1013 -10 -2966 -10 -1629 0 -2965
-2 -2970 -6 -5 -3 -9 2 -9 10 0 14 280 16 2872 18 2616 3 3046 3 3071 -1z
m-78 -3326 l0 -3180 -2887 -3 -2888 -2 0 3178 c0 1748 3 3182 7 3185 3 4 1303
6 2887 5 l2881 -3 0 -3180z m-2858 -3306 c1662 0 2959 -4 2948 -9 -29 -12
-5952 -12 -5960 0 -11 18 5 31 25 20 12 -7 1023 -10 2987 -11z"/>
<path d="M499 6414 c-6 -7 -9 -796 -9 -2000 0 -1714 2 -1989 14 -1996 8 -4
1238 -7 2733 -6 l2718 3 5 1960 c3 1078 4 1979 2 2002 l-3 43 -2725 2 c-1995
2 -2728 0 -2735 -8z m2148 -391 c10 -16 20 -30 24 -33 3 -3 12 -17 20 -32 24
-46 91 -151 136 -213 24 -32 43 -63 43 -67 0 -7 46 -80 101 -160 11 -15 19
-30 19 -33 0 -3 26 -45 59 -93 114 -169 229 -348 270 -418 22 -39 49 -79 59
-90 9 -10 23 -30 30 -44 22 -42 91 -150 103 -160 3 -3 12 -17 20 -32 8 -15 36
-59 62 -98 26 -39 51 -78 54 -88 4 -9 19 -34 35 -54 17 -21 40 -57 52 -80 22
-42 50 -67 61 -56 4 3 7 404 8 890 l2 883 445 0 445 0 3 -1585 c1 -872 0
-1604 -3 -1627 l-6 -43 -439 0 c-241 0 -445 3 -454 6 -9 3 -16 12 -16 19 0 6
-9 20 -20 30 -11 10 -20 22 -20 28 0 5 -20 40 -45 77 -25 37 -45 72 -45 78 0
6 -3 12 -7 14 -10 4 -53 65 -53 75 0 4 -14 23 -30 42 -17 18 -30 38 -30 43 0
5 -24 46 -53 91 -103 158 -113 174 -123 197 -4 8 -20 31 -36 51 -15 20 -28 39
-28 42 0 3 -24 41 -53 84 -29 43 -66 100 -83 127 -58 97 -106 169 -116 176 -4
3 -12 17 -17 30 -11 26 -32 61 -41 70 -10 9 -110 160 -110 166 0 3 -24 42 -53
87 -30 45 -67 104 -83 130 -42 70 -75 108 -88 104 -8 -3 -12 -244 -16 -883
l-5 -879 -435 0 -435 0 -2 1615 c-1 888 0 1621 2 1628 3 9 100 12 439 12 l436
0 17 -27z"/>
<path d="M3854 1931 c-94 -34 -126 -63 -179 -161 -28 -51 -30 -62 -29 -155 1
-77 6 -110 22 -145 28 -63 84 -124 137 -150 25 -12 47 -26 51 -31 3 -5 14 -9
26 -9 11 0 32 -6 46 -14 15 -8 39 -17 54 -20 15 -3 42 -21 62 -39 58 -55 60
-115 6 -168 -67 -68 -162 -6 -189 122 l-7 34 -105 -3 c-57 -1 -110 -4 -116 -7
-15 -5 -18 -121 -4 -130 6 -3 13 -25 17 -50 3 -24 12 -50 20 -56 8 -6 14 -16
14 -21 0 -21 72 -96 107 -111 48 -21 164 -47 207 -47 38 0 124 24 174 49 52
25 98 75 126 138 15 32 31 65 36 74 5 9 10 63 11 120 3 106 -13 179 -48 220
-7 8 -13 20 -13 26 0 26 -68 73 -177 120 -18 7 -35 18 -38 23 -3 6 -19 10 -36
10 -16 0 -46 9 -66 20 -21 11 -43 20 -49 20 -13 0 -24 32 -24 72 0 47 81 75
124 43 31 -23 56 -68 56 -99 l0 -29 103 6 c137 8 137 8 137 71 0 29 -7 59 -15
70 -8 11 -15 28 -15 38 0 44 -87 142 -138 155 -14 3 -37 12 -51 19 -38 20
-175 17 -237 -5z"/>
<path d="M865 1920 c-8 -13 -6 -1113 2 -1119 4 -3 59 -5 121 -3 l112 3 0 274
c0 254 7 323 26 263 9 -29 53 -127 109 -243 24 -49 66 -136 92 -192 l48 -102
108 -3 c60 -2 115 1 123 5 12 7 14 92 14 548 0 353 -4 547 -10 560 -9 17 -22
19 -106 19 -52 0 -104 -5 -115 -10 -18 -10 -19 -24 -19 -275 0 -146 -3 -265
-7 -265 -5 1 -25 38 -47 83 -194 415 -215 455 -241 461 -33 8 -205 5 -210 -4z"/>
<path d="M1766 1914 c-3 -9 -6 -263 -6 -565 l0 -549 343 2 342 3 3 121 c2 92
-1 124 -11 132 -9 8 -82 13 -208 14 l-194 3 -3 97 -3 98 183 2 183 3 3 109 c2
75 -1 113 -10 123 -10 12 -40 15 -173 13 -88 -1 -166 -2 -172 -1 -9 1 -13 23
-13 76 0 53 4 75 13 76 6 1 94 0 193 -1 l182 -1 11 34 c13 40 12 196 -2 215
-7 9 -86 12 -332 12 -285 0 -324 -2 -329 -16z"/>
<path d="M2487 1924 c-12 -12 -8 -74 9 -125 9 -27 14 -59 11 -70 -3 -12 0 -40
8 -63 7 -22 16 -75 20 -116 4 -41 11 -82 16 -91 4 -9 13 -61 18 -115 16 -154
30 -256 41 -287 5 -16 12 -59 15 -95 6 -65 22 -140 34 -154 3 -4 58 -8 121 -9
l115 -3 17 55 c9 30 24 92 33 139 10 47 24 111 31 143 8 32 14 76 14 98 0 22
7 56 15 76 8 19 15 52 15 72 0 42 16 76 23 51 5 -14 31 -151 41 -215 3 -16 10
-52 15 -80 19 -93 42 -210 51 -264 5 -29 13 -58 18 -63 5 -5 62 -7 126 -6
l118 3 14 40 c7 22 14 52 14 67 0 15 6 60 14 100 39 197 59 330 76 503 5 55
15 111 20 126 6 14 15 56 20 95 5 38 13 90 18 117 14 74 7 78 -123 75 -107 -3
-110 -4 -117 -28 -26 -94 -33 -146 -56 -442 -7 -92 -17 -118 -27 -72 -3 16
-10 47 -15 69 -5 22 -12 69 -16 105 -3 36 -11 70 -16 77 -5 6 -12 38 -14 70
-3 32 -12 75 -20 96 -8 20 -14 53 -14 72 0 46 -23 55 -145 55 -106 0 -125 -10
-125 -63 0 -18 -5 -48 -11 -67 -6 -19 -14 -71 -19 -114 -5 -43 -14 -84 -19
-89 -6 -6 -11 -25 -11 -42 0 -18 -7 -54 -15 -81 -8 -27 -15 -61 -15 -76 0 -15
-4 -30 -10 -33 -12 -7 -24 37 -16 62 6 20 -6 137 -28 288 -9 55 -18 120 -22
145 -4 25 -10 50 -15 55 -9 12 -221 19 -232 9z"/>
<path d="M4550 1910 c-13 -8 -15 -59 -18 -340 -2 -221 1 -336 8 -350 9 -17 21
-20 80 -20 44 0 72 4 77 13 4 6 8 68 9 137 1 69 2 129 3 133 0 4 34 7 74 5
l72 -3 0 -133 c0 -153 -1 -152 86 -152 95 0 90 -24 87 370 l-3 345 -65 1 c-36
1 -75 -3 -88 -7 -22 -9 -23 -12 -20 -111 1 -57 -1 -109 -5 -115 -5 -8 -32 -13
-73 -13 l-64 0 -2 38 c-1 20 0 69 1 108 4 90 -8 104 -87 104 -31 0 -64 -5 -72
-10z"/>
<path d="M5127 1913 c-4 -3 -7 -163 -7 -354 0 -307 2 -348 16 -353 28 -11 250
-6 285 6 85 29 133 95 157 216 26 129 14 275 -30 369 -24 51 -87 108 -130 117
-41 8 -283 8 -291 -1z m253 -193 c32 -32 40 -64 40 -153 0 -139 -30 -192 -103
-185 l-32 3 -3 165 c-1 90 0 170 2 177 8 21 73 16 96 -7z"/>
</g>
</svg>
